<svg xmlns="http://www.w3.org/2000/svg" viewBox="0 0 256 256" role="img" aria-labelledby="title desc">
  <title id="title">SgranaDati icon</title>
  <desc id="desc">A document being anonymized before being sent to an AI system.</desc>
  <defs>
    <linearGradient id="bg" x1="28" y1="24" x2="224" y2="232" gradientUnits="userSpaceOnUse">
      <stop offset="0" stop-color="#70d6ff"/>
      <stop offset="0.45" stop-color="#1e3a8a"/>
      <stop offset="1" stop-color="#0f172a"/>
    </linearGradient>
    <linearGradient id="maskBand" x1="68" y1="96" x2="194" y2="168" gradientUnits="userSpaceOnUse">
      <stop offset="0" stop-color="#ffb56b"/>
      <stop offset="1" stop-color="#ff6b57"/>
    </linearGradient>
    <filter id="softGlow" x="-20%" y="-20%" width="140%" height="140%">
      <feGaussianBlur stdDeviation="6" result="blur"/>
      <feMerge>
        <feMergeNode in="blur"/>
        <feMergeNode in="SourceGraphic"/>
      </feMerge>
    </filter>
  </defs>

  <rect x="12" y="12" width="232" height="232" rx="56" fill="url(#bg)"/>
  <path d="M196 52c17 19 26 45 26 76 0 58-36 96-93 110 33-19 53-51 53-93 0-36-14-67-40-90 21 2 38 10 54 23Z" fill="rgba(255,255,255,0.07)"/>

  <g transform="translate(50 42)">
    <path d="M34 8h76l28 28v112c0 13-11 24-24 24H34c-13 0-24-11-24-24V32C10 19 21 8 34 8Z" fill="#e8f1ff"/>
    <path d="M110 8v24c0 8 6 14 14 14h24Z" fill="#bdd4ff"/>

    <rect x="28" y="54" width="54" height="10" rx="5" fill="#94a7c6"/>
    <rect x="28" y="76" width="74" height="10" rx="5" fill="#94a7c6"/>
    <rect x="28" y="98" width="48" height="10" rx="5" fill="#94a7c6"/>

    <g opacity="0.98">
      <rect x="86" y="70" width="16" height="16" rx="4" fill="#1e3a8a"/>
      <rect x="108" y="70" width="16" height="16" rx="4" fill="#1e3a8a"/>
      <rect x="86" y="92" width="16" height="16" rx="4" fill="#1e3a8a"/>
      <rect x="108" y="92" width="16" height="16" rx="4" fill="#1e3a8a"/>
      <rect x="64" y="114" width="16" height="16" rx="4" fill="#1e3a8a"/>
      <rect x="86" y="114" width="16" height="16" rx="4" fill="#1e3a8a"/>
      <rect x="108" y="114" width="16" height="16" rx="4" fill="#1e3a8a"/>
    </g>

    <path d="M22 115c17-16 39-23 65-23 20 0 40 5 59 16" fill="none" stroke="url(#maskBand)" stroke-linecap="round" stroke-width="22" filter="url(#softGlow)" opacity="0.95"/>
  </g>

  <g transform="translate(156 62)">
    <circle cx="34" cy="38" r="16" fill="#70d6ff"/>
    <circle cx="12" cy="66" r="7" fill="#ff8a3d"/>
    <circle cx="58" cy="74" r="7" fill="#ff8a3d"/>
    <circle cx="74" cy="38" r="7" fill="#ff8a3d"/>
    <circle cx="34" cy="96" r="7" fill="#ff8a3d"/>
    <path d="M34 38 12 66M34 38 58 74M34 38 74 38M34 38 34 96" stroke="#d8f5ff" stroke-width="6" stroke-linecap="round"/>
    <circle cx="34" cy="38" r="30" fill="none" stroke="rgba(112,214,255,0.28)" stroke-width="6"/>
  </g>
</svg>
